<?xml version="1.0" encoding="utf-8" standalone="no"?>
<!DOCTYPE svg PUBLIC "-//W3C//DTD SVG 1.1//EN"
  "http://www.w3.org/Graphics/SVG/1.1/DTD/svg11.dtd">
<svg xmlns:xlink="http://www.w3.org/1999/xlink" width="871.2pt" height="259.2pt" viewBox="0 0 871.2 259.2" xmlns="http://www.w3.org/2000/svg" version="1.1">
 <metadata>
  <rdf:RDF xmlns:dc="http://purl.org/dc/elements/1.1/" xmlns:cc="http://creativecommons.org/ns#" xmlns:rdf="http://www.w3.org/1999/02/22-rdf-syntax-ns#">
   <cc:Work>
    <dc:type rdf:resource="http://purl.org/dc/dcmitype/StillImage"/>
    <dc:date>2026-07-09T18:54:21.902832</dc:date>
    <dc:format>image/svg+xml</dc:format>
    <dc:creator>
     <cc:Agent>
      <dc:title>Matplotlib v3.10.3, https://matplotlib.org/</dc:title>
     </cc:Agent>
    </dc:creator>
   </cc:Work>
  </rdf:RDF>
 </metadata>
 <defs>
  <style type="text/css">*{stroke-linejoin: round; stroke-linecap: butt}</style>
 </defs>
 <g id="figure_1">
  <g id="patch_1">
   <path d="M 0 259.2 
L 871.2 259.2 
L 871.2 0 
L 0 0 
z
" style="fill: #0d1117"/>
  </g>
  <g id="axes_1">
   <g id="patch_2">
    <path d="M 72 216 
L 180 216 
Q 194.4 216 194.4 201.6 
L 194.4 93.6 
Q 194.4 79.2 180 79.2 
L 72 79.2 
Q 57.6 79.2 57.6 93.6 
L 57.6 201.6 
Q 57.6 216 72 216 
z
" clip-path="url(#pd4323861aa)" style="fill: #21262d; opacity: 0.9; stroke: #58a6ff; stroke-width: 2; stroke-linejoin: miter"/>
   </g>
   <g id="patch_3">
    <path d="M 230.4 216 
L 338.4 216 
Q 352.8 216 352.8 201.6 
L 352.8 93.6 
Q 352.8 79.2 338.4 79.2 
L 230.4 79.2 
Q 216 79.2 216 93.6 
L 216 201.6 
Q 216 216 230.4 216 
z
" clip-path="url(#pd4323861aa)" style="fill: #21262d; opacity: 0.9; stroke: #a371f7; stroke-width: 2; stroke-linejoin: miter"/>
   </g>
   <g id="patch_4">
    <path d="M 388.8 216 
L 496.8 216 
Q 511.2 216 511.2 201.6 
L 511.2 93.6 
Q 511.2 79.2 496.8 79.2 
L 388.8 79.2 
Q 374.4 79.2 374.4 93.6 
L 374.4 201.6 
Q 374.4 216 388.8 216 
z
" clip-path="url(#pd4323861aa)" style="fill: #21262d; opacity: 0.9; stroke: #f0883e; stroke-width: 2; stroke-linejoin: miter"/>
   </g>
   <g id="patch_5">
    <path d="M 547.2 216 
L 655.2 216 
Q 669.6 216 669.6 201.6 
L 669.6 93.6 
Q 669.6 79.2 655.2 79.2 
L 547.2 79.2 
Q 532.8 79.2 532.8 93.6 
L 532.8 201.6 
Q 532.8 216 547.2 216 
z
" clip-path="url(#pd4323861aa)" style="fill: #21262d; opacity: 0.9; stroke: #238636; stroke-width: 2; stroke-linejoin: miter"/>
   </g>
   <g id="patch_6">
    <path d="M 705.6 216 
L 813.6 216 
Q 828 216 828 201.6 
L 828 93.6 
Q 828 79.2 813.6 79.2 
L 705.6 79.2 
Q 691.2 79.2 691.2 93.6 
L 691.2 201.6 
Q 691.2 216 705.6 216 
z
" clip-path="url(#pd4323861aa)" style="fill: #21262d; opacity: 0.9; stroke: #58a6ff; stroke-width: 2; stroke-linejoin: miter"/>
   </g>
   <g id="line2d_1">
    <path d="M 327.6 39.6 
L 543.6 39.6 
" clip-path="url(#pd4323861aa)" style="fill: none; stroke: #58a6ff; stroke-width: 2; stroke-linecap: round"/>
   </g>
   <g id="line2d_2">
    <path d="M 68.4 97.2 
L 183.6 97.2 
" clip-path="url(#pd4323861aa)" style="fill: none; stroke: #58a6ff; stroke-width: 3; stroke-linecap: round"/>
   </g>
   <g id="line2d_3">
    <path d="M 226.8 97.2 
L 342 97.2 
" clip-path="url(#pd4323861aa)" style="fill: none; stroke: #a371f7; stroke-width: 3; stroke-linecap: round"/>
   </g>
   <g id="line2d_4">
    <path d="M 385.2 97.2 
L 500.4 97.2 
" clip-path="url(#pd4323861aa)" style="fill: none; stroke: #f0883e; stroke-width: 3; stroke-linecap: round"/>
   </g>
   <g id="line2d_5">
    <path d="M 543.6 97.2 
L 658.8 97.2 
" clip-path="url(#pd4323861aa)" style="fill: none; stroke: #238636; stroke-width: 3; stroke-linecap: round"/>
   </g>
   <g id="line2d_6">
    <path d="M 702 97.2 
L 817.2 97.2 
" clip-path="url(#pd4323861aa)" style="fill: none; stroke: #58a6ff; stroke-width: 3; stroke-linecap: round"/>
   </g>
   <g id="text_1">
    <!-- PRODUCT ANALYTICS PIPELINE -->
    <g style="fill: #f0f6fc" transform="translate(297.4025 25.2) scale(0.16 -0.16)">
     <defs>
      <path id="DejaVuSans-Bold-50" d="M 588 4666 
L 2584 4666 
Q 3475 4666 3951 4270 
Q 4428 3875 4428 3144 
Q 4428 2409 3951 2014 
Q 3475 1619 2584 1619 
L 1791 1619 
L 1791 0 
L 588 0 
L 588 4666 
z
M 1791 3794 
L 1791 2491 
L 2456 2491 
Q 2806 2491 2997 2661 
Q 3188 2831 3188 3144 
Q 3188 3456 2997 3625 
Q 2806 3794 2456 3794 
L 1791 3794 
z
" transform="scale(0.015625)"/>
      <path id="DejaVuSans-Bold-52" d="M 2297 2597 
Q 2675 2597 2839 2737 
Q 3003 2878 3003 3200 
Q 3003 3519 2839 3656 
Q 2675 3794 2297 3794 
L 1791 3794 
L 1791 2597 
L 2297 2597 
z
M 1791 1766 
L 1791 0 
L 588 0 
L 588 4666 
L 2425 4666 
Q 3347 4666 3776 4356 
Q 4206 4047 4206 3378 
Q 4206 2916 3982 2619 
Q 3759 2322 3309 2181 
Q 3556 2125 3751 1926 
Q 3947 1728 4147 1325 
L 4800 0 
L 3519 0 
L 2950 1159 
Q 2778 1509 2601 1637 
Q 2425 1766 2131 1766 
L 1791 1766 
z
" transform="scale(0.015625)"/>
      <path id="DejaVuSans-Bold-4f" d="M 2719 3878 
Q 2169 3878 1866 3472 
Q 1563 3066 1563 2328 
Q 1563 1594 1866 1187 
Q 2169 781 2719 781 
Q 3272 781 3575 1187 
Q 3878 1594 3878 2328 
Q 3878 3066 3575 3472 
Q 3272 3878 2719 3878 
z
M 2719 4750 
Q 3844 4750 4481 4106 
Q 5119 3463 5119 2328 
Q 5119 1197 4481 553 
Q 3844 -91 2719 -91 
Q 1597 -91 958 553 
Q 319 1197 319 2328 
Q 319 3463 958 4106 
Q 1597 4750 2719 4750 
z
" transform="scale(0.015625)"/>
      <path id="DejaVuSans-Bold-44" d="M 1791 3756 
L 1791 909 
L 2222 909 
Q 2959 909 3348 1275 
Q 3738 1641 3738 2338 
Q 3738 3031 3350 3393 
Q 2963 3756 2222 3756 
L 1791 3756 
z
M 588 4666 
L 1856 4666 
Q 2919 4666 3439 4514 
Q 3959 4363 4331 4000 
Q 4659 3684 4818 3271 
Q 4978 2859 4978 2338 
Q 4978 1809 4818 1395 
Q 4659 981 4331 666 
Q 3956 303 3431 151 
Q 2906 0 1856 0 
L 588 0 
L 588 4666 
z
" transform="scale(0.015625)"/>
      <path id="DejaVuSans-Bold-55" d="M 588 4666 
L 1791 4666 
L 1791 1869 
Q 1791 1291 1980 1042 
Q 2169 794 2597 794 
Q 3028 794 3217 1042 
Q 3406 1291 3406 1869 
L 3406 4666 
L 4609 4666 
L 4609 1869 
Q 4609 878 4112 393 
Q 3616 -91 2597 -91 
Q 1581 -91 1084 393 
Q 588 878 588 1869 
L 588 4666 
z
" transform="scale(0.015625)"/>
      <path id="DejaVuSans-Bold-43" d="M 4288 256 
Q 3956 84 3597 -3 
Q 3238 -91 2847 -91 
Q 1681 -91 1000 561 
Q 319 1213 319 2328 
Q 319 3447 1000 4098 
Q 1681 4750 2847 4750 
Q 3238 4750 3597 4662 
Q 3956 4575 4288 4403 
L 4288 3438 
Q 3953 3666 3628 3772 
Q 3303 3878 2944 3878 
Q 2300 3878 1931 3465 
Q 1563 3053 1563 2328 
Q 1563 1606 1931 1193 
Q 2300 781 2944 781 
Q 3303 781 3628 887 
Q 3953 994 4288 1222 
L 4288 256 
z
" transform="scale(0.015625)"/>
      <path id="DejaVuSans-Bold-54" d="M 31 4666 
L 4331 4666 
L 4331 3756 
L 2784 3756 
L 2784 0 
L 1581 0 
L 1581 3756 
L 31 3756 
L 31 4666 
z
" transform="scale(0.015625)"/>
      <path id="DejaVuSans-Bold-20" transform="scale(0.015625)"/>
      <path id="DejaVuSans-Bold-41" d="M 3419 850 
L 1538 850 
L 1241 0 
L 31 0 
L 1759 4666 
L 3194 4666 
L 4922 0 
L 3713 0 
L 3419 850 
z
M 1838 1716 
L 3116 1716 
L 2478 3572 
L 1838 1716 
z
" transform="scale(0.015625)"/>
      <path id="DejaVuSans-Bold-4e" d="M 588 4666 
L 1931 4666 
L 3628 1466 
L 3628 4666 
L 4769 4666 
L 4769 0 
L 3425 0 
L 1728 3200 
L 1728 0 
L 588 0 
L 588 4666 
z
" transform="scale(0.015625)"/>
      <path id="DejaVuSans-Bold-4c" d="M 588 4666 
L 1791 4666 
L 1791 909 
L 3903 909 
L 3903 0 
L 588 0 
L 588 4666 
z
" transform="scale(0.015625)"/>
      <path id="DejaVuSans-Bold-59" d="M -63 4666 
L 1253 4666 
L 2316 3003 
L 3378 4666 
L 4697 4666 
L 2919 1966 
L 2919 0 
L 1716 0 
L 1716 1966 
L -63 4666 
z
" transform="scale(0.015625)"/>
      <path id="DejaVuSans-Bold-49" d="M 588 4666 
L 1791 4666 
L 1791 0 
L 588 0 
L 588 4666 
z
" transform="scale(0.015625)"/>
      <path id="DejaVuSans-Bold-53" d="M 3834 4519 
L 3834 3531 
Q 3450 3703 3084 3790 
Q 2719 3878 2394 3878 
Q 1963 3878 1756 3759 
Q 1550 3641 1550 3391 
Q 1550 3203 1689 3098 
Q 1828 2994 2194 2919 
L 2706 2816 
Q 3484 2659 3812 2340 
Q 4141 2022 4141 1434 
Q 4141 663 3683 286 
Q 3225 -91 2284 -91 
Q 1841 -91 1394 -6 
Q 947 78 500 244 
L 500 1259 
Q 947 1022 1364 901 
Q 1781 781 2169 781 
Q 2563 781 2772 912 
Q 2981 1044 2981 1288 
Q 2981 1506 2839 1625 
Q 2697 1744 2272 1838 
L 1806 1941 
Q 1106 2091 782 2419 
Q 459 2747 459 3303 
Q 459 4000 909 4375 
Q 1359 4750 2203 4750 
Q 2588 4750 2994 4692 
Q 3400 4634 3834 4519 
z
" transform="scale(0.015625)"/>
      <path id="DejaVuSans-Bold-45" d="M 588 4666 
L 3834 4666 
L 3834 3756 
L 1791 3756 
L 1791 2888 
L 3713 2888 
L 3713 1978 
L 1791 1978 
L 1791 909 
L 3903 909 
L 3903 0 
L 588 0 
L 588 4666 
z
" transform="scale(0.015625)"/>
     </defs>
     <use xlink:href="#DejaVuSans-Bold-50"/>
     <use xlink:href="#DejaVuSans-Bold-52" transform="translate(73.291016 0)"/>
     <use xlink:href="#DejaVuSans-Bold-4f" transform="translate(150.292969 0)"/>
     <use xlink:href="#DejaVuSans-Bold-44" transform="translate(235.302734 0)"/>
     <use xlink:href="#DejaVuSans-Bold-55" transform="translate(318.310547 0)"/>
     <use xlink:href="#DejaVuSans-Bold-43" transform="translate(399.511719 0)"/>
     <use xlink:href="#DejaVuSans-Bold-54" transform="translate(472.900391 0)"/>
     <use xlink:href="#DejaVuSans-Bold-20" transform="translate(541.113281 0)"/>
     <use xlink:href="#DejaVuSans-Bold-41" transform="translate(575.927734 0)"/>
     <use xlink:href="#DejaVuSans-Bold-4e" transform="translate(653.320312 0)"/>
     <use xlink:href="#DejaVuSans-Bold-41" transform="translate(737.011719 0)"/>
     <use xlink:href="#DejaVuSans-Bold-4c" transform="translate(814.404297 0)"/>
     <use xlink:href="#DejaVuSans-Bold-59" transform="translate(862.5 0)"/>
     <use xlink:href="#DejaVuSans-Bold-54" transform="translate(934.912109 0)"/>
     <use xlink:href="#DejaVuSans-Bold-49" transform="translate(1003.125 0)"/>
     <use xlink:href="#DejaVuSans-Bold-43" transform="translate(1040.332031 0)"/>
     <use xlink:href="#DejaVuSans-Bold-53" transform="translate(1115.595703 0)"/>
     <use xlink:href="#DejaVuSans-Bold-20" transform="translate(1187.617188 0)"/>
     <use xlink:href="#DejaVuSans-Bold-50" transform="translate(1222.431641 0)"/>
     <use xlink:href="#DejaVuSans-Bold-49" transform="translate(1295.722656 0)"/>
     <use xlink:href="#DejaVuSans-Bold-50" transform="translate(1332.929688 0)"/>
     <use xlink:href="#DejaVuSans-Bold-45" transform="translate(1406.220703 0)"/>
     <use xlink:href="#DejaVuSans-Bold-4c" transform="translate(1474.53125 0)"/>
     <use xlink:href="#DejaVuSans-Bold-49" transform="translate(1538.251953 0)"/>
     <use xlink:href="#DejaVuSans-Bold-4e" transform="translate(1575.458984 0)"/>
     <use xlink:href="#DejaVuSans-Bold-45" transform="translate(1659.150391 0)"/>
    </g>
   </g>
   <g id="text_2">
    <!-- RAW DATA -->
    <g style="fill: #f0f6fc" transform="translate(102.579375 142.6075) scale(0.08 -0.08)">
     <defs>
      <path id="DejaVuSans-Bold-57" d="M 191 4666 
L 1344 4666 
L 2150 1275 
L 2950 4666 
L 4109 4666 
L 4909 1275 
L 5716 4666 
L 6859 4666 
L 5759 0 
L 4372 0 
L 3525 3547 
L 2688 0 
L 1300 0 
L 191 4666 
z
" transform="scale(0.015625)"/>
     </defs>
     <use xlink:href="#DejaVuSans-Bold-52"/>
     <use xlink:href="#DejaVuSans-Bold-41" transform="translate(77.001953 0)"/>
     <use xlink:href="#DejaVuSans-Bold-57" transform="translate(149.894531 0)"/>
     <use xlink:href="#DejaVuSans-Bold-20" transform="translate(260.197266 0)"/>
     <use xlink:href="#DejaVuSans-Bold-44" transform="translate(295.011719 0)"/>
     <use xlink:href="#DejaVuSans-Bold-41" transform="translate(378.019531 0)"/>
     <use xlink:href="#DejaVuSans-Bold-54" transform="translate(447.662109 0)"/>
     <use xlink:href="#DejaVuSans-Bold-41" transform="translate(508.125 0)"/>
    </g>
   </g>
   <g id="text_3">
    <!-- Events -->
    <g style="fill: #8b949e" transform="translate(115.842656 177.169219) scale(0.06 -0.06)">
     <defs>
      <path id="DejaVuSans-45" d="M 628 4666 
L 3578 4666 
L 3578 4134 
L 1259 4134 
L 1259 2753 
L 3481 2753 
L 3481 2222 
L 1259 2222 
L 1259 531 
L 3634 531 
L 3634 0 
L 628 0 
L 628 4666 
z
" transform="scale(0.015625)"/>
      <path id="DejaVuSans-76" d="M 191 3500 
L 800 3500 
L 1894 563 
L 2988 3500 
L 3597 3500 
L 2284 0 
L 1503 0 
L 191 3500 
z
" transform="scale(0.015625)"/>
      <path id="DejaVuSans-65" d="M 3597 1894 
L 3597 1613 
L 953 1613 
Q 991 1019 1311 708 
Q 1631 397 2203 397 
Q 2534 397 2845 478 
Q 3156 559 3463 722 
L 3463 178 
Q 3153 47 2828 -22 
Q 2503 -91 2169 -91 
Q 1331 -91 842 396 
Q 353 884 353 1716 
Q 353 2575 817 3079 
Q 1281 3584 2069 3584 
Q 2775 3584 3186 3129 
Q 3597 2675 3597 1894 
z
M 3022 2063 
Q 3016 2534 2758 2815 
Q 2500 3097 2075 3097 
Q 1594 3097 1305 2825 
Q 1016 2553 972 2059 
L 3022 2063 
z
" transform="scale(0.015625)"/>
      <path id="DejaVuSans-6e" d="M 3513 2113 
L 3513 0 
L 2938 0 
L 2938 2094 
Q 2938 2591 2744 2837 
Q 2550 3084 2163 3084 
Q 1697 3084 1428 2787 
Q 1159 2491 1159 1978 
L 1159 0 
L 581 0 
L 581 3500 
L 1159 3500 
L 1159 2956 
Q 1366 3272 1645 3428 
Q 1925 3584 2291 3584 
Q 2894 3584 3203 3211 
Q 3513 2838 3513 2113 
z
" transform="scale(0.015625)"/>
      <path id="DejaVuSans-74" d="M 1172 4494 
L 1172 3500 
L 2356 3500 
L 2356 3053 
L 1172 3053 
L 1172 1153 
Q 1172 725 1289 603 
Q 1406 481 1766 481 
L 2356 481 
L 2356 0 
L 1766 0 
Q 1100 0 847 248 
Q 594 497 594 1153 
L 594 3053 
L 172 3053 
L 172 3500 
L 594 3500 
L 594 4494 
L 1172 4494 
z
" transform="scale(0.015625)"/>
      <path id="DejaVuSans-73" d="M 2834 3397 
L 2834 2853 
Q 2591 2978 2328 3040 
Q 2066 3103 1784 3103 
Q 1356 3103 1142 2972 
Q 928 2841 928 2578 
Q 928 2378 1081 2264 
Q 1234 2150 1697 2047 
L 1894 2003 
Q 2506 1872 2764 1633 
Q 3022 1394 3022 966 
Q 3022 478 2636 193 
Q 2250 -91 1575 -91 
Q 1294 -91 989 -36 
Q 684 19 347 128 
L 347 722 
Q 666 556 975 473 
Q 1284 391 1588 391 
Q 1994 391 2212 530 
Q 2431 669 2431 922 
Q 2431 1156 2273 1281 
Q 2116 1406 1581 1522 
L 1381 1569 
Q 847 1681 609 1914 
Q 372 2147 372 2553 
Q 372 3047 722 3315 
Q 1072 3584 1716 3584 
Q 2034 3584 2315 3537 
Q 2597 3491 2834 3397 
z
" transform="scale(0.015625)"/>
     </defs>
     <use xlink:href="#DejaVuSans-45"/>
     <use xlink:href="#DejaVuSans-76" transform="translate(63.183594 0)"/>
     <use xlink:href="#DejaVuSans-65" transform="translate(122.363281 0)"/>
     <use xlink:href="#DejaVuSans-6e" transform="translate(183.886719 0)"/>
     <use xlink:href="#DejaVuSans-74" transform="translate(247.265625 0)"/>
     <use xlink:href="#DejaVuSans-73" transform="translate(286.474609 0)"/>
    </g>
    <!-- Sessions -->
    <g style="fill: #8b949e" transform="translate(112.990781 185.255625) scale(0.06 -0.06)">
     <defs>
      <path id="DejaVuSans-53" d="M 3425 4513 
L 3425 3897 
Q 3066 4069 2747 4153 
Q 2428 4238 2131 4238 
Q 1616 4238 1336 4038 
Q 1056 3838 1056 3469 
Q 1056 3159 1242 3001 
Q 1428 2844 1947 2747 
L 2328 2669 
Q 3034 2534 3370 2195 
Q 3706 1856 3706 1288 
Q 3706 609 3251 259 
Q 2797 -91 1919 -91 
Q 1588 -91 1214 -16 
Q 841 59 441 206 
L 441 856 
Q 825 641 1194 531 
Q 1563 422 1919 422 
Q 2459 422 2753 634 
Q 3047 847 3047 1241 
Q 3047 1584 2836 1778 
Q 2625 1972 2144 2069 
L 1759 2144 
Q 1053 2284 737 2584 
Q 422 2884 422 3419 
Q 422 4038 858 4394 
Q 1294 4750 2059 4750 
Q 2388 4750 2728 4690 
Q 3069 4631 3425 4513 
z
" transform="scale(0.015625)"/>
      <path id="DejaVuSans-69" d="M 603 3500 
L 1178 3500 
L 1178 0 
L 603 0 
L 603 3500 
z
M 603 4863 
L 1178 4863 
L 1178 4134 
L 603 4134 
L 603 4863 
z
" transform="scale(0.015625)"/>
      <path id="DejaVuSans-6f" d="M 1959 3097 
Q 1497 3097 1228 2736 
Q 959 2375 959 1747 
Q 959 1119 1226 758 
Q 1494 397 1959 397 
Q 2419 397 2687 759 
Q 2956 1122 2956 1747 
Q 2956 2369 2687 2733 
Q 2419 3097 1959 3097 
z
M 1959 3584 
Q 2709 3584 3137 3096 
Q 3566 2609 3566 1747 
Q 3566 888 3137 398 
Q 2709 -91 1959 -91 
Q 1206 -91 779 398 
Q 353 888 353 1747 
Q 353 2609 779 3096 
Q 1206 3584 1959 3584 
z
" transform="scale(0.015625)"/>
     </defs>
     <use xlink:href="#DejaVuSans-53"/>
     <use xlink:href="#DejaVuSans-65" transform="translate(63.476562 0)"/>
     <use xlink:href="#DejaVuSans-73" transform="translate(125 0)"/>
     <use xlink:href="#DejaVuSans-73" transform="translate(177.099609 0)"/>
     <use xlink:href="#DejaVuSans-69" transform="translate(229.199219 0)"/>
     <use xlink:href="#DejaVuSans-6f" transform="translate(256.982422 0)"/>
     <use xlink:href="#DejaVuSans-6e" transform="translate(318.164062 0)"/>
     <use xlink:href="#DejaVuSans-73" transform="translate(381.542969 0)"/>
    </g>
    <!-- Logs -->
    <g style="fill: #8b949e" transform="translate(119.077969 193.342031) scale(0.06 -0.06)">
     <defs>
      <path id="DejaVuSans-4c" d="M 628 4666 
L 1259 4666 
L 1259 531 
L 3531 531 
L 3531 0 
L 628 0 
L 628 4666 
z
" transform="scale(0.015625)"/>
      <path id="DejaVuSans-67" d="M 2906 1791 
Q 2906 2416 2648 2759 
Q 2391 3103 1925 3103 
Q 1463 3103 1205 2759 
Q 947 2416 947 1791 
Q 947 1169 1205 825 
Q 1463 481 1925 481 
Q 2391 481 2648 825 
Q 2906 1169 2906 1791 
z
M 3481 434 
Q 3481 -459 3084 -895 
Q 2688 -1331 1869 -1331 
Q 1566 -1331 1297 -1286 
Q 1028 -1241 775 -1147 
L 775 -588 
Q 1028 -725 1275 -790 
Q 1522 -856 1778 -856 
Q 2344 -856 2625 -561 
Q 2906 -266 2906 331 
L 2906 616 
Q 2728 306 2450 153 
Q 2172 0 1784 0 
Q 1141 0 747 490 
Q 353 981 353 1791 
Q 353 2603 747 3093 
Q 1141 3584 1784 3584 
Q 2172 3584 2450 3431 
Q 2728 3278 2906 2969 
L 2906 3500 
L 3481 3500 
L 3481 434 
z
" transform="scale(0.015625)"/>
     </defs>
     <use xlink:href="#DejaVuSans-4c"/>
     <use xlink:href="#DejaVuSans-6f" transform="translate(53.962891 0)"/>
     <use xlink:href="#DejaVuSans-67" transform="translate(115.144531 0)"/>
     <use xlink:href="#DejaVuSans-73" transform="translate(178.621094 0)"/>
    </g>
   </g>
   <g id="text_4">
    <!-- SQL QUERIES -->
    <g style="fill: #f0f6fc" transform="translate(254.615 142.6075) scale(0.08 -0.08)">
     <defs>
      <path id="DejaVuSans-Bold-51" d="M 2847 -84 
L 2753 -84 
Q 1600 -84 959 553 
Q 319 1191 319 2328 
Q 319 3463 958 4106 
Q 1597 4750 2719 4750 
Q 3853 4750 4486 4112 
Q 5119 3475 5119 2328 
Q 5119 1541 4783 972 
Q 4447 403 3816 116 
L 4756 -934 
L 3609 -934 
L 2847 -84 
z
M 2719 3878 
Q 2169 3878 1866 3472 
Q 1563 3066 1563 2328 
Q 1563 1578 1859 1179 
Q 2156 781 2719 781 
Q 3272 781 3575 1187 
Q 3878 1594 3878 2328 
Q 3878 3066 3575 3472 
Q 3272 3878 2719 3878 
z
" transform="scale(0.015625)"/>
     </defs>
     <use xlink:href="#DejaVuSans-Bold-53"/>
     <use xlink:href="#DejaVuSans-Bold-51" transform="translate(72.021484 0)"/>
     <use xlink:href="#DejaVuSans-Bold-4c" transform="translate(157.03125 0)"/>
     <use xlink:href="#DejaVuSans-Bold-20" transform="translate(220.751953 0)"/>
     <use xlink:href="#DejaVuSans-Bold-51" transform="translate(255.566406 0)"/>
     <use xlink:href="#DejaVuSans-Bold-55" transform="translate(340.576172 0)"/>
     <use xlink:href="#DejaVuSans-Bold-45" transform="translate(421.777344 0)"/>
     <use xlink:href="#DejaVuSans-Bold-52" transform="translate(490.087891 0)"/>
     <use xlink:href="#DejaVuSans-Bold-49" transform="translate(567.089844 0)"/>
     <use xlink:href="#DejaVuSans-Bold-45" transform="translate(604.296875 0)"/>
     <use xlink:href="#DejaVuSans-Bold-53" transform="translate(672.607422 0)"/>
    </g>
   </g>
   <g id="text_5">
    <!-- Joins -->
    <g style="fill: #8b949e" transform="translate(277.381875 177.169219) scale(0.06 -0.06)">
     <defs>
      <path id="DejaVuSans-4a" d="M 628 4666 
L 1259 4666 
L 1259 325 
Q 1259 -519 939 -900 
Q 619 -1281 -91 -1281 
L -331 -1281 
L -331 -750 
L -134 -750 
Q 284 -750 456 -515 
Q 628 -281 628 325 
L 628 4666 
z
" transform="scale(0.015625)"/>
     </defs>
     <use xlink:href="#DejaVuSans-4a"/>
     <use xlink:href="#DejaVuSans-6f" transform="translate(29.492188 0)"/>
     <use xlink:href="#DejaVuSans-69" transform="translate(90.673828 0)"/>
     <use xlink:href="#DejaVuSans-6e" transform="translate(118.457031 0)"/>
     <use xlink:href="#DejaVuSans-73" transform="translate(181.835938 0)"/>
    </g>
    <!-- CTEs -->
    <g style="fill: #8b949e" transform="translate(277.014375 185.255625) scale(0.06 -0.06)">
     <defs>
      <path id="DejaVuSans-43" d="M 4122 4306 
L 4122 3641 
Q 3803 3938 3442 4084 
Q 3081 4231 2675 4231 
Q 1875 4231 1450 3742 
Q 1025 3253 1025 2328 
Q 1025 1406 1450 917 
Q 1875 428 2675 428 
Q 3081 428 3442 575 
Q 3803 722 4122 1019 
L 4122 359 
Q 3791 134 3420 21 
Q 3050 -91 2638 -91 
Q 1578 -91 968 557 
Q 359 1206 359 2328 
Q 359 3453 968 4101 
Q 1578 4750 2638 4750 
Q 3056 4750 3426 4639 
Q 3797 4528 4122 4306 
z
" transform="scale(0.015625)"/>
      <path id="DejaVuSans-54" d="M -19 4666 
L 3928 4666 
L 3928 4134 
L 2272 4134 
L 2272 0 
L 1638 0 
L 1638 4134 
L -19 4134 
L -19 4666 
z
" transform="scale(0.015625)"/>
     </defs>
     <use xlink:href="#DejaVuSans-43"/>
     <use xlink:href="#DejaVuSans-54" transform="translate(69.824219 0)"/>
     <use xlink:href="#DejaVuSans-45" transform="translate(130.908203 0)"/>
     <use xlink:href="#DejaVuSans-73" transform="translate(194.091797 0)"/>
    </g>
    <!-- Aggregates -->
    <g style="fill: #8b949e" transform="translate(267.199219 193.342031) scale(0.06 -0.06)">
     <defs>
      <path id="DejaVuSans-41" d="M 2188 4044 
L 1331 1722 
L 3047 1722 
L 2188 4044 
z
M 1831 4666 
L 2547 4666 
L 4325 0 
L 3669 0 
L 3244 1197 
L 1141 1197 
L 716 0 
L 50 0 
L 1831 4666 
z
" transform="scale(0.015625)"/>
      <path id="DejaVuSans-72" d="M 2631 2963 
Q 2534 3019 2420 3045 
Q 2306 3072 2169 3072 
Q 1681 3072 1420 2755 
Q 1159 2438 1159 1844 
L 1159 0 
L 581 0 
L 581 3500 
L 1159 3500 
L 1159 2956 
Q 1341 3275 1631 3429 
Q 1922 3584 2338 3584 
Q 2397 3584 2469 3576 
Q 2541 3569 2628 3553 
L 2631 2963 
z
" transform="scale(0.015625)"/>
      <path id="DejaVuSans-61" d="M 2194 1759 
Q 1497 1759 1228 1600 
Q 959 1441 959 1056 
Q 959 750 1161 570 
Q 1363 391 1709 391 
Q 2188 391 2477 730 
Q 2766 1069 2766 1631 
L 2766 1759 
L 2194 1759 
z
M 3341 1997 
L 3341 0 
L 2766 0 
L 2766 531 
Q 2569 213 2275 61 
Q 1981 -91 1556 -91 
Q 1019 -91 701 211 
Q 384 513 384 1019 
Q 384 1609 779 1909 
Q 1175 2209 1959 2209 
L 2766 2209 
L 2766 2266 
Q 2766 2663 2505 2880 
Q 2244 3097 1772 3097 
Q 1472 3097 1187 3025 
Q 903 2953 641 2809 
L 641 3341 
Q 956 3463 1253 3523 
Q 1550 3584 1831 3584 
Q 2591 3584 2966 3190 
Q 3341 2797 3341 1997 
z
" transform="scale(0.015625)"/>
     </defs>
     <use xlink:href="#DejaVuSans-41"/>
     <use xlink:href="#DejaVuSans-67" transform="translate(68.408203 0)"/>
     <use xlink:href="#DejaVuSans-67" transform="translate(131.884766 0)"/>
     <use xlink:href="#DejaVuSans-72" transform="translate(195.361328 0)"/>
     <use xlink:href="#DejaVuSans-65" transform="translate(234.224609 0)"/>
     <use xlink:href="#DejaVuSans-67" transform="translate(295.748047 0)"/>
     <use xlink:href="#DejaVuSans-61" transform="translate(359.224609 0)"/>
     <use xlink:href="#DejaVuSans-74" transform="translate(420.503906 0)"/>
     <use xlink:href="#DejaVuSans-65" transform="translate(459.712891 0)"/>
     <use xlink:href="#DejaVuSans-73" transform="translate(521.236328 0)"/>
    </g>
   </g>
   <g id="text_6">
    <!-- PYTHON ANALYSIS -->
    <g style="fill: #f0f6fc" transform="translate(401.146875 142.6075) scale(0.08 -0.08)">
     <defs>
      <path id="DejaVuSans-Bold-48" d="M 588 4666 
L 1791 4666 
L 1791 2888 
L 3566 2888 
L 3566 4666 
L 4769 4666 
L 4769 0 
L 3566 0 
L 3566 1978 
L 1791 1978 
L 1791 0 
L 588 0 
L 588 4666 
z
" transform="scale(0.015625)"/>
     </defs>
     <use xlink:href="#DejaVuSans-Bold-50"/>
     <use xlink:href="#DejaVuSans-Bold-59" transform="translate(73.291016 0)"/>
     <use xlink:href="#DejaVuSans-Bold-54" transform="translate(145.703125 0)"/>
     <use xlink:href="#DejaVuSans-Bold-48" transform="translate(213.916016 0)"/>
     <use xlink:href="#DejaVuSans-Bold-4f" transform="translate(297.607422 0)"/>
     <use xlink:href="#DejaVuSans-Bold-4e" transform="translate(382.617188 0)"/>
     <use xlink:href="#DejaVuSans-Bold-20" transform="translate(466.308594 0)"/>
     <use xlink:href="#DejaVuSans-Bold-41" transform="translate(501.123047 0)"/>
     <use xlink:href="#DejaVuSans-Bold-4e" transform="translate(578.515625 0)"/>
     <use xlink:href="#DejaVuSans-Bold-41" transform="translate(662.207031 0)"/>
     <use xlink:href="#DejaVuSans-Bold-4c" transform="translate(739.599609 0)"/>
     <use xlink:href="#DejaVuSans-Bold-59" transform="translate(787.695312 0)"/>
     <use xlink:href="#DejaVuSans-Bold-53" transform="translate(860.107422 0)"/>
     <use xlink:href="#DejaVuSans-Bold-49" transform="translate(932.128906 0)"/>
     <use xlink:href="#DejaVuSans-Bold-53" transform="translate(969.335938 0)"/>
    </g>
   </g>
   <g id="text_7">
    <!-- Pandas -->
    <g style="fill: #8b949e" transform="translate(432.080625 177.169219) scale(0.06 -0.06)">
     <defs>
      <path id="DejaVuSans-50" d="M 1259 4147 
L 1259 2394 
L 2053 2394 
Q 2494 2394 2734 2622 
Q 2975 2850 2975 3272 
Q 2975 3691 2734 3919 
Q 2494 4147 2053 4147 
L 1259 4147 
z
M 628 4666 
L 2053 4666 
Q 2838 4666 3239 4311 
Q 3641 3956 3641 3272 
Q 3641 2581 3239 2228 
Q 2838 1875 2053 1875 
L 1259 1875 
L 1259 0 
L 628 0 
L 628 4666 
z
" transform="scale(0.015625)"/>
      <path id="DejaVuSans-64" d="M 2906 2969 
L 2906 4863 
L 3481 4863 
L 3481 0 
L 2906 0 
L 2906 525 
Q 2725 213 2448 61 
Q 2172 -91 1784 -91 
Q 1150 -91 751 415 
Q 353 922 353 1747 
Q 353 2572 751 3078 
Q 1150 3584 1784 3584 
Q 2172 3584 2448 3432 
Q 2725 3281 2906 2969 
z
M 947 1747 
Q 947 1113 1208 752 
Q 1469 391 1925 391 
Q 2381 391 2643 752 
Q 2906 1113 2906 1747 
Q 2906 2381 2643 2742 
Q 2381 3103 1925 3103 
Q 1469 3103 1208 2742 
Q 947 2381 947 1747 
z
" transform="scale(0.015625)"/>
     </defs>
     <use xlink:href="#DejaVuSans-50"/>
     <use xlink:href="#DejaVuSans-61" transform="translate(55.802734 0)"/>
     <use xlink:href="#DejaVuSans-6e" transform="translate(117.082031 0)"/>
     <use xlink:href="#DejaVuSans-64" transform="translate(180.460938 0)"/>
     <use xlink:href="#DejaVuSans-61" transform="translate(243.9375 0)"/>
     <use xlink:href="#DejaVuSans-73" transform="translate(305.216797 0)"/>
    </g>
    <!-- Visualize -->
    <g style="fill: #8b949e" transform="translate(429.592031 185.255625) scale(0.06 -0.06)">
     <defs>
      <path id="DejaVuSans-56" d="M 1831 0 
L 50 4666 
L 709 4666 
L 2188 738 
L 3669 4666 
L 4325 4666 
L 2547 0 
L 1831 0 
z
" transform="scale(0.015625)"/>
      <path id="DejaVuSans-75" d="M 544 1381 
L 544 3500 
L 1119 3500 
L 1119 1403 
Q 1119 906 1312 657 
Q 1506 409 1894 409 
Q 2359 409 2629 706 
Q 2900 1003 2900 1516 
L 2900 3500 
L 3475 3500 
L 3475 0 
L 2900 0 
L 2900 538 
Q 2691 219 2414 64 
Q 2138 -91 1772 -91 
Q 1169 -91 856 284 
Q 544 659 544 1381 
z
M 1991 3584 
L 1991 3584 
z
" transform="scale(0.015625)"/>
      <path id="DejaVuSans-6c" d="M 603 4863 
L 1178 4863 
L 1178 0 
L 603 0 
L 603 4863 
z
" transform="scale(0.015625)"/>
      <path id="DejaVuSans-7a" d="M 353 3500 
L 3084 3500 
L 3084 2975 
L 922 459 
L 3084 459 
L 3084 0 
L 275 0 
L 275 525 
L 2438 3041 
L 353 3041 
L 353 3500 
z
" transform="scale(0.015625)"/>
     </defs>
     <use xlink:href="#DejaVuSans-56"/>
     <use xlink:href="#DejaVuSans-69" transform="translate(66.158203 0)"/>
     <use xlink:href="#DejaVuSans-73" transform="translate(93.941406 0)"/>
     <use xlink:href="#DejaVuSans-75" transform="translate(146.041016 0)"/>
     <use xlink:href="#DejaVuSans-61" transform="translate(209.419922 0)"/>
     <use xlink:href="#DejaVuSans-6c" transform="translate(270.699219 0)"/>
     <use xlink:href="#DejaVuSans-69" transform="translate(298.482422 0)"/>
     <use xlink:href="#DejaVuSans-7a" transform="translate(326.265625 0)"/>
     <use xlink:href="#DejaVuSans-65" transform="translate(378.755859 0)"/>
    </g>
    <!-- Model -->
    <g style="fill: #8b949e" transform="translate(433.792031 193.342031) scale(0.06 -0.06)">
     <defs>
      <path id="DejaVuSans-4d" d="M 628 4666 
L 1569 4666 
L 2759 1491 
L 3956 4666 
L 4897 4666 
L 4897 0 
L 4281 0 
L 4281 4097 
L 3078 897 
L 2444 897 
L 1241 4097 
L 1241 0 
L 628 0 
L 628 4666 
z
" transform="scale(0.015625)"/>
     </defs>
     <use xlink:href="#DejaVuSans-4d"/>
     <use xlink:href="#DejaVuSans-6f" transform="translate(86.279297 0)"/>
     <use xlink:href="#DejaVuSans-64" transform="translate(147.460938 0)"/>
     <use xlink:href="#DejaVuSans-65" transform="translate(210.9375 0)"/>
     <use xlink:href="#DejaVuSans-6c" transform="translate(272.460938 0)"/>
    </g>
   </g>
   <g id="text_8">
    <!-- INSIGHTS -->
    <g style="fill: #f0f6fc" transform="translate(579.755625 142.6075) scale(0.08 -0.08)">
     <defs>
      <path id="DejaVuSans-Bold-47" d="M 4781 347 
Q 4331 128 3847 18 
Q 3363 -91 2847 -91 
Q 1681 -91 1000 561 
Q 319 1213 319 2328 
Q 319 3456 1012 4103 
Q 1706 4750 2913 4750 
Q 3378 4750 3804 4662 
Q 4231 4575 4609 4403 
L 4609 3438 
Q 4219 3659 3833 3768 
Q 3447 3878 3059 3878 
Q 2341 3878 1952 3476 
Q 1563 3075 1563 2328 
Q 1563 1588 1938 1184 
Q 2313 781 3003 781 
Q 3191 781 3352 804 
Q 3513 828 3641 878 
L 3641 1784 
L 2906 1784 
L 2906 2591 
L 4781 2591 
L 4781 347 
z
" transform="scale(0.015625)"/>
     </defs>
     <use xlink:href="#DejaVuSans-Bold-49"/>
     <use xlink:href="#DejaVuSans-Bold-4e" transform="translate(37.207031 0)"/>
     <use xlink:href="#DejaVuSans-Bold-53" transform="translate(120.898438 0)"/>
     <use xlink:href="#DejaVuSans-Bold-49" transform="translate(192.919922 0)"/>
     <use xlink:href="#DejaVuSans-Bold-47" transform="translate(230.126953 0)"/>
     <use xlink:href="#DejaVuSans-Bold-48" transform="translate(312.207031 0)"/>
     <use xlink:href="#DejaVuSans-Bold-54" transform="translate(395.898438 0)"/>
     <use xlink:href="#DejaVuSans-Bold-53" transform="translate(464.111328 0)"/>
    </g>
   </g>
   <g id="text_9">
    <!-- Patterns -->
    <g style="fill: #8b949e" transform="translate(588.844688 177.169219) scale(0.06 -0.06)">
     <use xlink:href="#DejaVuSans-50"/>
     <use xlink:href="#DejaVuSans-61" transform="translate(55.802734 0)"/>
     <use xlink:href="#DejaVuSans-74" transform="translate(117.082031 0)"/>
     <use xlink:href="#DejaVuSans-74" transform="translate(156.291016 0)"/>
     <use xlink:href="#DejaVuSans-65" transform="translate(195.5 0)"/>
     <use xlink:href="#DejaVuSans-72" transform="translate(257.023438 0)"/>
     <use xlink:href="#DejaVuSans-6e" transform="translate(296.386719 0)"/>
     <use xlink:href="#DejaVuSans-73" transform="translate(359.765625 0)"/>
    </g>
    <!-- Frictions -->
    <g style="fill: #8b949e" transform="translate(588.666563 185.255625) scale(0.06 -0.06)">
     <defs>
      <path id="DejaVuSans-46" d="M 628 4666 
L 3309 4666 
L 3309 4134 
L 1259 4134 
L 1259 2759 
L 3109 2759 
L 3109 2228 
L 1259 2228 
L 1259 0 
L 628 0 
L 628 4666 
z
" transform="scale(0.015625)"/>
      <path id="DejaVuSans-63" d="M 3122 3366 
L 3122 2828 
Q 2878 2963 2633 3030 
Q 2388 3097 2138 3097 
Q 1578 3097 1268 2742 
Q 959 2388 959 1747 
Q 959 1106 1268 751 
Q 1578 397 2138 397 
Q 2388 397 2633 464 
Q 2878 531 3122 666 
L 3122 134 
Q 2881 22 2623 -34 
Q 2366 -91 2075 -91 
Q 1284 -91 818 406 
Q 353 903 353 1747 
Q 353 2603 823 3093 
Q 1294 3584 2113 3584 
Q 2378 3584 2631 3529 
Q 2884 3475 3122 3366 
z
" transform="scale(0.015625)"/>
     </defs>
     <use xlink:href="#DejaVuSans-46"/>
     <use xlink:href="#DejaVuSans-72" transform="translate(50.269531 0)"/>
     <use xlink:href="#DejaVuSans-69" transform="translate(91.382812 0)"/>
     <use xlink:href="#DejaVuSans-63" transform="translate(119.166016 0)"/>
     <use xlink:href="#DejaVuSans-74" transform="translate(174.146484 0)"/>
     <use xlink:href="#DejaVuSans-69" transform="translate(213.355469 0)"/>
     <use xlink:href="#DejaVuSans-6f" transform="translate(241.138672 0)"/>
     <use xlink:href="#DejaVuSans-6e" transform="translate(302.320312 0)"/>
     <use xlink:href="#DejaVuSans-73" transform="translate(365.699219 0)"/>
    </g>
    <!-- Opportunities -->
    <g style="fill: #8b949e" transform="translate(580.730156 193.342031) scale(0.06 -0.06)">
     <defs>
      <path id="DejaVuSans-4f" d="M 2522 4238 
Q 1834 4238 1429 3725 
Q 1025 3213 1025 2328 
Q 1025 1447 1429 934 
Q 1834 422 2522 422 
Q 3209 422 3611 934 
Q 4013 1447 4013 2328 
Q 4013 3213 3611 3725 
Q 3209 4238 2522 4238 
z
M 2522 4750 
Q 3503 4750 4090 4092 
Q 4678 3434 4678 2328 
Q 4678 1225 4090 567 
Q 3503 -91 2522 -91 
Q 1538 -91 948 565 
Q 359 1222 359 2328 
Q 359 3434 948 4092 
Q 1538 4750 2522 4750 
z
" transform="scale(0.015625)"/>
      <path id="DejaVuSans-70" d="M 1159 525 
L 1159 -1331 
L 581 -1331 
L 581 3500 
L 1159 3500 
L 1159 2969 
Q 1341 3281 1617 3432 
Q 1894 3584 2278 3584 
Q 2916 3584 3314 3078 
Q 3713 2572 3713 1747 
Q 3713 922 3314 415 
Q 2916 -91 2278 -91 
Q 1894 -91 1617 61 
Q 1341 213 1159 525 
z
M 3116 1747 
Q 3116 2381 2855 2742 
Q 2594 3103 2138 3103 
Q 1681 3103 1420 2742 
Q 1159 2381 1159 1747 
Q 1159 1113 1420 752 
Q 1681 391 2138 391 
Q 2594 391 2855 752 
Q 3116 1113 3116 1747 
z
" transform="scale(0.015625)"/>
     </defs>
     <use xlink:href="#DejaVuSans-4f"/>
     <use xlink:href="#DejaVuSans-70" transform="translate(78.710938 0)"/>
     <use xlink:href="#DejaVuSans-70" transform="translate(142.1875 0)"/>
     <use xlink:href="#DejaVuSans-6f" transform="translate(205.664062 0)"/>
     <use xlink:href="#DejaVuSans-72" transform="translate(266.845703 0)"/>
     <use xlink:href="#DejaVuSans-74" transform="translate(307.958984 0)"/>
     <use xlink:href="#DejaVuSans-75" transform="translate(347.167969 0)"/>
     <use xlink:href="#DejaVuSans-6e" transform="translate(410.546875 0)"/>
     <use xlink:href="#DejaVuSans-69" transform="translate(473.925781 0)"/>
     <use xlink:href="#DejaVuSans-74" transform="translate(501.708984 0)"/>
     <use xlink:href="#DejaVuSans-69" transform="translate(540.917969 0)"/>
     <use xlink:href="#DejaVuSans-65" transform="translate(568.701172 0)"/>
     <use xlink:href="#DejaVuSans-73" transform="translate(630.224609 0)"/>
    </g>
   </g>
   <g id="text_10">
    <!-- DECISIONS -->
    <g style="fill: #f0f6fc" transform="translate(735.125625 142.6075) scale(0.08 -0.08)">
     <use xlink:href="#DejaVuSans-Bold-44"/>
     <use xlink:href="#DejaVuSans-Bold-45" transform="translate(83.007812 0)"/>
     <use xlink:href="#DejaVuSans-Bold-43" transform="translate(151.318359 0)"/>
     <use xlink:href="#DejaVuSans-Bold-49" transform="translate(224.707031 0)"/>
     <use xlink:href="#DejaVuSans-Bold-53" transform="translate(261.914062 0)"/>
     <use xlink:href="#DejaVuSans-Bold-49" transform="translate(333.935547 0)"/>
     <use xlink:href="#DejaVuSans-Bold-4f" transform="translate(371.142578 0)"/>
     <use xlink:href="#DejaVuSans-Bold-4e" transform="translate(456.152344 0)"/>
     <use xlink:href="#DejaVuSans-Bold-53" transform="translate(539.84375 0)"/>
    </g>
   </g>
   <g id="text_11">
    <!-- Roadmap -->
    <g style="fill: #8b949e" transform="translate(745.406719 177.169219) scale(0.06 -0.06)">
     <defs>
      <path id="DejaVuSans-52" d="M 2841 2188 
Q 3044 2119 3236 1894 
Q 3428 1669 3622 1275 
L 4263 0 
L 3584 0 
L 2988 1197 
Q 2756 1666 2539 1819 
Q 2322 1972 1947 1972 
L 1259 1972 
L 1259 0 
L 628 0 
L 628 4666 
L 2053 4666 
Q 2853 4666 3247 4331 
Q 3641 3997 3641 3322 
Q 3641 2881 3436 2590 
Q 3231 2300 2841 2188 
z
M 1259 4147 
L 1259 2491 
L 2053 2491 
Q 2509 2491 2742 2702 
Q 2975 2913 2975 3322 
Q 2975 3731 2742 3939 
Q 2509 4147 2053 4147 
L 1259 4147 
z
" transform="scale(0.015625)"/>
      <path id="DejaVuSans-6d" d="M 3328 2828 
Q 3544 3216 3844 3400 
Q 4144 3584 4550 3584 
Q 5097 3584 5394 3201 
Q 5691 2819 5691 2113 
L 5691 0 
L 5113 0 
L 5113 2094 
Q 5113 2597 4934 2840 
Q 4756 3084 4391 3084 
Q 3944 3084 3684 2787 
Q 3425 2491 3425 1978 
L 3425 0 
L 2847 0 
L 2847 2094 
Q 2847 2600 2669 2842 
Q 2491 3084 2119 3084 
Q 1678 3084 1418 2786 
Q 1159 2488 1159 1978 
L 1159 0 
L 581 0 
L 581 3500 
L 1159 3500 
L 1159 2956 
Q 1356 3278 1631 3431 
Q 1906 3584 2284 3584 
Q 2666 3584 2933 3390 
Q 3200 3197 3328 2828 
z
" transform="scale(0.015625)"/>
     </defs>
     <use xlink:href="#DejaVuSans-52"/>
     <use xlink:href="#DejaVuSans-6f" transform="translate(64.982422 0)"/>
     <use xlink:href="#DejaVuSans-61" transform="translate(126.164062 0)"/>
     <use xlink:href="#DejaVuSans-64" transform="translate(187.443359 0)"/>
     <use xlink:href="#DejaVuSans-6d" transform="translate(250.919922 0)"/>
     <use xlink:href="#DejaVuSans-61" transform="translate(348.332031 0)"/>
     <use xlink:href="#DejaVuSans-70" transform="translate(409.611328 0)"/>
    </g>
    <!-- Prioritize -->
    <g style="fill: #8b949e" transform="translate(746.444531 185.255625) scale(0.06 -0.06)">
     <use xlink:href="#DejaVuSans-50"/>
     <use xlink:href="#DejaVuSans-72" transform="translate(58.552734 0)"/>
     <use xlink:href="#DejaVuSans-69" transform="translate(99.666016 0)"/>
     <use xlink:href="#DejaVuSans-6f" transform="translate(127.449219 0)"/>
     <use xlink:href="#DejaVuSans-72" transform="translate(188.630859 0)"/>
     <use xlink:href="#DejaVuSans-69" transform="translate(229.744141 0)"/>
     <use xlink:href="#DejaVuSans-74" transform="translate(257.527344 0)"/>
     <use xlink:href="#DejaVuSans-69" transform="translate(296.736328 0)"/>
     <use xlink:href="#DejaVuSans-7a" transform="translate(324.519531 0)"/>
     <use xlink:href="#DejaVuSans-65" transform="translate(377.009766 0)"/>
    </g>
    <!-- Ship -->
    <g style="fill: #8b949e" transform="translate(753.05625 193.342031) scale(0.06 -0.06)">
     <defs>
      <path id="DejaVuSans-68" d="M 3513 2113 
L 3513 0 
L 2938 0 
L 2938 2094 
Q 2938 2591 2744 2837 
Q 2550 3084 2163 3084 
Q 1697 3084 1428 2787 
Q 1159 2491 1159 1978 
L 1159 0 
L 581 0 
L 581 4863 
L 1159 4863 
L 1159 2956 
Q 1366 3272 1645 3428 
Q 1925 3584 2291 3584 
Q 2894 3584 3203 3211 
Q 3513 2838 3513 2113 
z
" transform="scale(0.015625)"/>
     </defs>
     <use xlink:href="#DejaVuSans-53"/>
     <use xlink:href="#DejaVuSans-68" transform="translate(63.476562 0)"/>
     <use xlink:href="#DejaVuSans-69" transform="translate(126.855469 0)"/>
     <use xlink:href="#DejaVuSans-70" transform="translate(154.638672 0)"/>
    </g>
   </g>
   <g id="patch_7">
    <path d="M 192.80127 147.6 
Q 201.602994 147.6 208.168651 147.6 
" style="fill: none; stroke: #484f58; stroke-width: 2; stroke-linecap: round"/>
    <path d="M 203.768651 145.4 
L 208.168651 147.6 
L 203.768651 149.8 
" style="fill: none; stroke: #484f58; stroke-width: 2; stroke-linecap: round"/>
   </g>
   <g id="patch_8">
    <path d="M 351.20127 147.6 
Q 360.002994 147.6 366.568651 147.6 
" style="fill: none; stroke: #484f58; stroke-width: 2; stroke-linecap: round"/>
    <path d="M 362.168651 145.4 
L 366.568651 147.6 
L 362.168651 149.8 
" style="fill: none; stroke: #484f58; stroke-width: 2; stroke-linecap: round"/>
   </g>
   <g id="patch_9">
    <path d="M 509.60127 147.6 
Q 518.402994 147.6 524.968651 147.6 
" style="fill: none; stroke: #484f58; stroke-width: 2; stroke-linecap: round"/>
    <path d="M 520.568651 145.4 
L 524.968651 147.6 
L 520.568651 149.8 
" style="fill: none; stroke: #484f58; stroke-width: 2; stroke-linecap: round"/>
   </g>
   <g id="patch_10">
    <path d="M 668.00127 147.6 
Q 676.802994 147.6 683.368651 147.6 
" style="fill: none; stroke: #484f58; stroke-width: 2; stroke-linecap: round"/>
    <path d="M 678.968651 145.4 
L 683.368651 147.6 
L 678.968651 149.8 
" style="fill: none; stroke: #484f58; stroke-width: 2; stroke-linecap: round"/>
   </g>
  </g>
 </g>
 <defs>
  <clipPath id="pd4323861aa">
   <rect x="3.6" y="3.6" width="864" height="252"/>
  </clipPath>
 </defs>
</svg>
