<?xml version="1.0" encoding="utf-8" standalone="no"?>
<!DOCTYPE svg PUBLIC "-//W3C//DTD SVG 1.1//EN"
  "http://www.w3.org/Graphics/SVG/1.1/DTD/svg11.dtd">
<svg xmlns:xlink="http://www.w3.org/1999/xlink" width="727.2pt" height="439.2pt" viewBox="0 0 727.2 439.2" xmlns="http://www.w3.org/2000/svg" version="1.1">
 <metadata>
  <rdf:RDF xmlns:dc="http://purl.org/dc/elements/1.1/" xmlns:cc="http://creativecommons.org/ns#" xmlns:rdf="http://www.w3.org/1999/02/22-rdf-syntax-ns#">
   <cc:Work>
    <dc:type rdf:resource="http://purl.org/dc/dcmitype/StillImage"/>
    <dc:date>2026-07-09T18:54:38.988735</dc:date>
    <dc:format>image/svg+xml</dc:format>
    <dc:creator>
     <cc:Agent>
      <dc:title>Matplotlib v3.10.3, https://matplotlib.org/</dc:title>
     </cc:Agent>
    </dc:creator>
   </cc:Work>
  </rdf:RDF>
 </metadata>
 <defs>
  <style type="text/css">*{stroke-linejoin: round; stroke-linecap: butt}</style>
 </defs>
 <g id="figure_1">
  <g id="patch_1">
   <path d="M 0 439.2 
L 727.2 439.2 
L 727.2 0 
L 0 0 
z
" style="fill: #0d1117"/>
  </g>
  <g id="axes_1">
   <g id="patch_2">
    <path d="M 183.6 114.48 
L 579.6 114.48 
Q 581.04 114.48 581.04 113.04 
L 581.04 95.76 
Q 581.04 94.32 579.6 94.32 
L 183.6 94.32 
Q 182.16 94.32 182.16 95.76 
L 182.16 113.04 
Q 182.16 114.48 183.6 114.48 
z
" clip-path="url(#p38f5ab05cf)" style="fill: #21262d; opacity: 0.8"/>
   </g>
   <g id="patch_3">
    <path d="M 183.6 114.48 
L 520.2 114.48 
Q 521.64 114.48 521.64 113.04 
L 521.64 95.76 
Q 521.64 94.32 520.2 94.32 
L 183.6 94.32 
Q 182.16 94.32 182.16 95.76 
L 182.16 113.04 
Q 182.16 114.48 183.6 114.48 
z
" clip-path="url(#p38f5ab05cf)" style="fill: #58a6ff; opacity: 0.9"/>
   </g>
   <g id="patch_4">
    <path d="M 183.6 168.48 
L 579.6 168.48 
Q 581.04 168.48 581.04 167.04 
L 581.04 149.76 
Q 581.04 148.32 579.6 148.32 
L 183.6 148.32 
Q 182.16 148.32 182.16 149.76 
L 182.16 167.04 
Q 182.16 168.48 183.6 168.48 
z
" clip-path="url(#p38f5ab05cf)" style="fill: #21262d; opacity: 0.8"/>
   </g>
   <g id="patch_5">
    <path d="M 183.6 168.48 
L 460.8 168.48 
Q 462.24 168.48 462.24 167.04 
L 462.24 149.76 
Q 462.24 148.32 460.8 148.32 
L 183.6 148.32 
Q 182.16 148.32 182.16 149.76 
L 182.16 167.04 
Q 182.16 168.48 183.6 168.48 
z
" clip-path="url(#p38f5ab05cf)" style="fill: #f0883e; opacity: 0.9"/>
   </g>
   <g id="patch_6">
    <path d="M 183.6 222.48 
L 579.6 222.48 
Q 581.04 222.48 581.04 221.04 
L 581.04 203.76 
Q 581.04 202.32 579.6 202.32 
L 183.6 202.32 
Q 182.16 202.32 182.16 203.76 
L 182.16 221.04 
Q 182.16 222.48 183.6 222.48 
z
" clip-path="url(#p38f5ab05cf)" style="fill: #21262d; opacity: 0.8"/>
   </g>
   <g id="patch_7">
    <path d="M 183.6 222.48 
L 480.6 222.48 
Q 482.04 222.48 482.04 221.04 
L 482.04 203.76 
Q 482.04 202.32 480.6 202.32 
L 183.6 202.32 
Q 182.16 202.32 182.16 203.76 
L 182.16 221.04 
Q 182.16 222.48 183.6 222.48 
z
" clip-path="url(#p38f5ab05cf)" style="fill: #238636; opacity: 0.9"/>
   </g>
   <g id="patch_8">
    <path d="M 183.6 276.48 
L 579.6 276.48 
Q 581.04 276.48 581.04 275.04 
L 581.04 257.76 
Q 581.04 256.32 579.6 256.32 
L 183.6 256.32 
Q 182.16 256.32 182.16 257.76 
L 182.16 275.04 
Q 182.16 276.48 183.6 276.48 
z
" clip-path="url(#p38f5ab05cf)" style="fill: #21262d; opacity: 0.8"/>
   </g>
   <g id="patch_9">
    <path d="M 183.6 276.48 
L 500.4 276.48 
Q 501.84 276.48 501.84 275.04 
L 501.84 257.76 
Q 501.84 256.32 500.4 256.32 
L 183.6 256.32 
Q 182.16 256.32 182.16 257.76 
L 182.16 275.04 
Q 182.16 276.48 183.6 276.48 
z
" clip-path="url(#p38f5ab05cf)" style="fill: #a371f7; opacity: 0.9"/>
   </g>
   <g id="patch_10">
    <path d="M 183.6 330.48 
L 579.6 330.48 
Q 581.04 330.48 581.04 329.04 
L 581.04 311.76 
Q 581.04 310.32 579.6 310.32 
L 183.6 310.32 
Q 182.16 310.32 182.16 311.76 
L 182.16 329.04 
Q 182.16 330.48 183.6 330.48 
z
" clip-path="url(#p38f5ab05cf)" style="fill: #21262d; opacity: 0.8"/>
   </g>
   <g id="patch_11">
    <path d="M 183.6 330.48 
L 468.72 330.48 
Q 470.16 330.48 470.16 329.04 
L 470.16 311.76 
Q 470.16 310.32 468.72 310.32 
L 183.6 310.32 
Q 182.16 310.32 182.16 311.76 
L 182.16 329.04 
Q 182.16 330.48 183.6 330.48 
z
" clip-path="url(#p38f5ab05cf)" style="fill: #fd3a5c; opacity: 0.9"/>
   </g>
   <g id="patch_12">
    <path d="M 183.6 384.48 
L 579.6 384.48 
Q 581.04 384.48 581.04 383.04 
L 581.04 365.76 
Q 581.04 364.32 579.6 364.32 
L 183.6 364.32 
Q 182.16 364.32 182.16 365.76 
L 182.16 383.04 
Q 182.16 384.48 183.6 384.48 
z
" clip-path="url(#p38f5ab05cf)" style="fill: #21262d; opacity: 0.8"/>
   </g>
   <g id="patch_13">
    <path d="M 183.6 384.48 
L 401.4 384.48 
Q 402.84 384.48 402.84 383.04 
L 402.84 365.76 
Q 402.84 364.32 401.4 364.32 
L 183.6 364.32 
Q 182.16 364.32 182.16 365.76 
L 182.16 383.04 
Q 182.16 384.48 183.6 384.48 
z
" clip-path="url(#p38f5ab05cf)" style="fill: #ffd700; opacity: 0.9"/>
   </g>
   <g id="line2d_1">
    <path d="M 255.6 50.4 
L 471.6 50.4 
" clip-path="url(#p38f5ab05cf)" style="fill: none; stroke: #58a6ff; stroke-width: 2; stroke-linecap: round"/>
   </g>
   <g id="text_1">
    <!-- SKILL MATRIX -->
    <g style="fill: #f0f6fc" transform="translate(301.39 32.4) scale(0.16 -0.16)">
     <defs>
      <path id="DejaVuSans-Bold-53" d="M 3834 4519 
L 3834 3531 
Q 3450 3703 3084 3790 
Q 2719 3878 2394 3878 
Q 1963 3878 1756 3759 
Q 1550 3641 1550 3391 
Q 1550 3203 1689 3098 
Q 1828 2994 2194 2919 
L 2706 2816 
Q 3484 2659 3812 2340 
Q 4141 2022 4141 1434 
Q 4141 663 3683 286 
Q 3225 -91 2284 -91 
Q 1841 -91 1394 -6 
Q 947 78 500 244 
L 500 1259 
Q 947 1022 1364 901 
Q 1781 781 2169 781 
Q 2563 781 2772 912 
Q 2981 1044 2981 1288 
Q 2981 1506 2839 1625 
Q 2697 1744 2272 1838 
L 1806 1941 
Q 1106 2091 782 2419 
Q 459 2747 459 3303 
Q 459 4000 909 4375 
Q 1359 4750 2203 4750 
Q 2588 4750 2994 4692 
Q 3400 4634 3834 4519 
z
" transform="scale(0.015625)"/>
      <path id="DejaVuSans-Bold-4b" d="M 588 4666 
L 1791 4666 
L 1791 2963 
L 3525 4666 
L 4922 4666 
L 2675 2456 
L 5153 0 
L 3647 0 
L 1791 1838 
L 1791 0 
L 588 0 
L 588 4666 
z
" transform="scale(0.015625)"/>
      <path id="DejaVuSans-Bold-49" d="M 588 4666 
L 1791 4666 
L 1791 0 
L 588 0 
L 588 4666 
z
" transform="scale(0.015625)"/>
      <path id="DejaVuSans-Bold-4c" d="M 588 4666 
L 1791 4666 
L 1791 909 
L 3903 909 
L 3903 0 
L 588 0 
L 588 4666 
z
" transform="scale(0.015625)"/>
      <path id="DejaVuSans-Bold-20" transform="scale(0.015625)"/>
      <path id="DejaVuSans-Bold-4d" d="M 588 4666 
L 2119 4666 
L 3181 2169 
L 4250 4666 
L 5778 4666 
L 5778 0 
L 4641 0 
L 4641 3413 
L 3566 897 
L 2803 897 
L 1728 3413 
L 1728 0 
L 588 0 
L 588 4666 
z
" transform="scale(0.015625)"/>
      <path id="DejaVuSans-Bold-41" d="M 3419 850 
L 1538 850 
L 1241 0 
L 31 0 
L 1759 4666 
L 3194 4666 
L 4922 0 
L 3713 0 
L 3419 850 
z
M 1838 1716 
L 3116 1716 
L 2478 3572 
L 1838 1716 
z
" transform="scale(0.015625)"/>
      <path id="DejaVuSans-Bold-54" d="M 31 4666 
L 4331 4666 
L 4331 3756 
L 2784 3756 
L 2784 0 
L 1581 0 
L 1581 3756 
L 31 3756 
L 31 4666 
z
" transform="scale(0.015625)"/>
      <path id="DejaVuSans-Bold-52" d="M 2297 2597 
Q 2675 2597 2839 2737 
Q 3003 2878 3003 3200 
Q 3003 3519 2839 3656 
Q 2675 3794 2297 3794 
L 1791 3794 
L 1791 2597 
L 2297 2597 
z
M 1791 1766 
L 1791 0 
L 588 0 
L 588 4666 
L 2425 4666 
Q 3347 4666 3776 4356 
Q 4206 4047 4206 3378 
Q 4206 2916 3982 2619 
Q 3759 2322 3309 2181 
Q 3556 2125 3751 1926 
Q 3947 1728 4147 1325 
L 4800 0 
L 3519 0 
L 2950 1159 
Q 2778 1509 2601 1637 
Q 2425 1766 2131 1766 
L 1791 1766 
z
" transform="scale(0.015625)"/>
      <path id="DejaVuSans-Bold-58" d="M 3188 2381 
L 4806 0 
L 3553 0 
L 2463 1594 
L 1381 0 
L 122 0 
L 1741 2381 
L 184 4666 
L 1441 4666 
L 2463 3163 
L 3481 4666 
L 4744 4666 
L 3188 2381 
z
" transform="scale(0.015625)"/>
     </defs>
     <use xlink:href="#DejaVuSans-Bold-53"/>
     <use xlink:href="#DejaVuSans-Bold-4b" transform="translate(72.021484 0)"/>
     <use xlink:href="#DejaVuSans-Bold-49" transform="translate(149.511719 0)"/>
     <use xlink:href="#DejaVuSans-Bold-4c" transform="translate(186.71875 0)"/>
     <use xlink:href="#DejaVuSans-Bold-4c" transform="translate(250.439453 0)"/>
     <use xlink:href="#DejaVuSans-Bold-20" transform="translate(314.160156 0)"/>
     <use xlink:href="#DejaVuSans-Bold-4d" transform="translate(348.974609 0)"/>
     <use xlink:href="#DejaVuSans-Bold-41" transform="translate(448.486328 0)"/>
     <use xlink:href="#DejaVuSans-Bold-54" transform="translate(518.128906 0)"/>
     <use xlink:href="#DejaVuSans-Bold-52" transform="translate(586.341797 0)"/>
     <use xlink:href="#DejaVuSans-Bold-49" transform="translate(663.34375 0)"/>
     <use xlink:href="#DejaVuSans-Bold-58" transform="translate(700.550781 0)"/>
    </g>
   </g>
   <g id="text_2">
    <!-- SQL -->
    <g style="fill: #f0f6fc" transform="translate(39.6 107.159375) scale(0.1 -0.1)">
     <defs>
      <path id="DejaVuSans-Bold-51" d="M 2847 -84 
L 2753 -84 
Q 1600 -84 959 553 
Q 319 1191 319 2328 
Q 319 3463 958 4106 
Q 1597 4750 2719 4750 
Q 3853 4750 4486 4112 
Q 5119 3475 5119 2328 
Q 5119 1541 4783 972 
Q 4447 403 3816 116 
L 4756 -934 
L 3609 -934 
L 2847 -84 
z
M 2719 3878 
Q 2169 3878 1866 3472 
Q 1563 3066 1563 2328 
Q 1563 1578 1859 1179 
Q 2156 781 2719 781 
Q 3272 781 3575 1187 
Q 3878 1594 3878 2328 
Q 3878 3066 3575 3472 
Q 3272 3878 2719 3878 
z
" transform="scale(0.015625)"/>
     </defs>
     <use xlink:href="#DejaVuSans-Bold-53"/>
     <use xlink:href="#DejaVuSans-Bold-51" transform="translate(72.021484 0)"/>
     <use xlink:href="#DejaVuSans-Bold-4c" transform="translate(157.03125 0)"/>
    </g>
   </g>
   <g id="text_3">
    <!-- 85% -->
    <g style="fill: #58a6ff" transform="translate(594 106.883437) scale(0.09 -0.09)">
     <defs>
      <path id="DejaVuSans-Bold-38" d="M 2228 2088 
Q 1891 2088 1709 1903 
Q 1528 1719 1528 1375 
Q 1528 1031 1709 848 
Q 1891 666 2228 666 
Q 2563 666 2741 848 
Q 2919 1031 2919 1375 
Q 2919 1722 2741 1905 
Q 2563 2088 2228 2088 
z
M 1350 2484 
Q 925 2613 709 2878 
Q 494 3144 494 3541 
Q 494 4131 934 4440 
Q 1375 4750 2228 4750 
Q 3075 4750 3515 4442 
Q 3956 4134 3956 3541 
Q 3956 3144 3739 2878 
Q 3522 2613 3097 2484 
Q 3572 2353 3814 2058 
Q 4056 1763 4056 1313 
Q 4056 619 3595 264 
Q 3134 -91 2228 -91 
Q 1319 -91 855 264 
Q 391 619 391 1313 
Q 391 1763 633 2058 
Q 875 2353 1350 2484 
z
M 1631 3419 
Q 1631 3141 1786 2991 
Q 1941 2841 2228 2841 
Q 2509 2841 2662 2991 
Q 2816 3141 2816 3419 
Q 2816 3697 2662 3845 
Q 2509 3994 2228 3994 
Q 1941 3994 1786 3844 
Q 1631 3694 1631 3419 
z
" transform="scale(0.015625)"/>
      <path id="DejaVuSans-Bold-35" d="M 678 4666 
L 3669 4666 
L 3669 3781 
L 1638 3781 
L 1638 3059 
Q 1775 3097 1914 3117 
Q 2053 3138 2203 3138 
Q 3056 3138 3531 2711 
Q 4006 2284 4006 1522 
Q 4006 766 3489 337 
Q 2972 -91 2053 -91 
Q 1656 -91 1267 -14 
Q 878 63 494 219 
L 494 1166 
Q 875 947 1217 837 
Q 1559 728 1863 728 
Q 2300 728 2551 942 
Q 2803 1156 2803 1522 
Q 2803 1891 2551 2103 
Q 2300 2316 1863 2316 
Q 1603 2316 1309 2248 
Q 1016 2181 678 2041 
L 678 4666 
z
" transform="scale(0.015625)"/>
      <path id="DejaVuSans-Bold-25" d="M 4959 1925 
Q 4738 1925 4616 1733 
Q 4494 1541 4494 1184 
Q 4494 825 4614 633 
Q 4734 441 4959 441 
Q 5184 441 5303 633 
Q 5422 825 5422 1184 
Q 5422 1541 5301 1733 
Q 5181 1925 4959 1925 
z
M 4959 2450 
Q 5541 2450 5875 2112 
Q 6209 1775 6209 1184 
Q 6209 594 5875 251 
Q 5541 -91 4959 -91 
Q 4378 -91 4042 251 
Q 3706 594 3706 1184 
Q 3706 1772 4042 2111 
Q 4378 2450 4959 2450 
z
M 2094 -91 
L 1403 -91 
L 4319 4750 
L 5013 4750 
L 2094 -91 
z
M 1453 4750 
Q 2034 4750 2367 4411 
Q 2700 4072 2700 3481 
Q 2700 2891 2367 2550 
Q 2034 2209 1453 2209 
Q 872 2209 539 2550 
Q 206 2891 206 3481 
Q 206 4072 539 4411 
Q 872 4750 1453 4750 
z
M 1453 4225 
Q 1228 4225 1106 4031 
Q 984 3838 984 3481 
Q 984 3122 1106 2926 
Q 1228 2731 1453 2731 
Q 1678 2731 1798 2926 
Q 1919 3122 1919 3481 
Q 1919 3838 1797 4031 
Q 1675 4225 1453 4225 
z
" transform="scale(0.015625)"/>
     </defs>
     <use xlink:href="#DejaVuSans-Bold-38"/>
     <use xlink:href="#DejaVuSans-Bold-35" transform="translate(69.580078 0)"/>
     <use xlink:href="#DejaVuSans-Bold-25" transform="translate(139.160156 0)"/>
    </g>
   </g>
   <g id="text_4">
    <!-- Python / Pandas -->
    <g style="fill: #f0f6fc" transform="translate(39.6 161.120312) scale(0.1 -0.1)">
     <defs>
      <path id="DejaVuSans-Bold-50" d="M 588 4666 
L 2584 4666 
Q 3475 4666 3951 4270 
Q 4428 3875 4428 3144 
Q 4428 2409 3951 2014 
Q 3475 1619 2584 1619 
L 1791 1619 
L 1791 0 
L 588 0 
L 588 4666 
z
M 1791 3794 
L 1791 2491 
L 2456 2491 
Q 2806 2491 2997 2661 
Q 3188 2831 3188 3144 
Q 3188 3456 2997 3625 
Q 2806 3794 2456 3794 
L 1791 3794 
z
" transform="scale(0.015625)"/>
      <path id="DejaVuSans-Bold-79" d="M 78 3500 
L 1197 3500 
L 2138 1125 
L 2938 3500 
L 4056 3500 
L 2584 -331 
Q 2363 -916 2067 -1148 
Q 1772 -1381 1288 -1381 
L 641 -1381 
L 641 -647 
L 991 -647 
Q 1275 -647 1404 -556 
Q 1534 -466 1606 -231 
L 1638 -134 
L 78 3500 
z
" transform="scale(0.015625)"/>
      <path id="DejaVuSans-Bold-74" d="M 1759 4494 
L 1759 3500 
L 2913 3500 
L 2913 2700 
L 1759 2700 
L 1759 1216 
Q 1759 972 1856 886 
Q 1953 800 2241 800 
L 2816 800 
L 2816 0 
L 1856 0 
Q 1194 0 917 276 
Q 641 553 641 1216 
L 641 2700 
L 84 2700 
L 84 3500 
L 641 3500 
L 641 4494 
L 1759 4494 
z
" transform="scale(0.015625)"/>
      <path id="DejaVuSans-Bold-68" d="M 4056 2131 
L 4056 0 
L 2931 0 
L 2931 347 
L 2931 1625 
Q 2931 2084 2911 2256 
Q 2891 2428 2841 2509 
Q 2775 2619 2662 2680 
Q 2550 2741 2406 2741 
Q 2056 2741 1856 2470 
Q 1656 2200 1656 1722 
L 1656 0 
L 538 0 
L 538 4863 
L 1656 4863 
L 1656 2988 
Q 1909 3294 2193 3439 
Q 2478 3584 2822 3584 
Q 3428 3584 3742 3212 
Q 4056 2841 4056 2131 
z
" transform="scale(0.015625)"/>
      <path id="DejaVuSans-Bold-6f" d="M 2203 2784 
Q 1831 2784 1636 2517 
Q 1441 2250 1441 1747 
Q 1441 1244 1636 976 
Q 1831 709 2203 709 
Q 2569 709 2762 976 
Q 2956 1244 2956 1747 
Q 2956 2250 2762 2517 
Q 2569 2784 2203 2784 
z
M 2203 3584 
Q 3106 3584 3614 3096 
Q 4122 2609 4122 1747 
Q 4122 884 3614 396 
Q 3106 -91 2203 -91 
Q 1297 -91 786 396 
Q 275 884 275 1747 
Q 275 2609 786 3096 
Q 1297 3584 2203 3584 
z
" transform="scale(0.015625)"/>
      <path id="DejaVuSans-Bold-6e" d="M 4056 2131 
L 4056 0 
L 2931 0 
L 2931 347 
L 2931 1631 
Q 2931 2084 2911 2256 
Q 2891 2428 2841 2509 
Q 2775 2619 2662 2680 
Q 2550 2741 2406 2741 
Q 2056 2741 1856 2470 
Q 1656 2200 1656 1722 
L 1656 0 
L 538 0 
L 538 3500 
L 1656 3500 
L 1656 2988 
Q 1909 3294 2193 3439 
Q 2478 3584 2822 3584 
Q 3428 3584 3742 3212 
Q 4056 2841 4056 2131 
z
" transform="scale(0.015625)"/>
      <path id="DejaVuSans-Bold-2f" d="M 1644 4666 
L 2338 4666 
L 691 -594 
L 0 -594 
L 1644 4666 
z
" transform="scale(0.015625)"/>
      <path id="DejaVuSans-Bold-61" d="M 2106 1575 
Q 1756 1575 1579 1456 
Q 1403 1338 1403 1106 
Q 1403 894 1545 773 
Q 1688 653 1941 653 
Q 2256 653 2472 879 
Q 2688 1106 2688 1447 
L 2688 1575 
L 2106 1575 
z
M 3816 1997 
L 3816 0 
L 2688 0 
L 2688 519 
Q 2463 200 2181 54 
Q 1900 -91 1497 -91 
Q 953 -91 614 226 
Q 275 544 275 1050 
Q 275 1666 698 1953 
Q 1122 2241 2028 2241 
L 2688 2241 
L 2688 2328 
Q 2688 2594 2478 2717 
Q 2269 2841 1825 2841 
Q 1466 2841 1156 2769 
Q 847 2697 581 2553 
L 581 3406 
Q 941 3494 1303 3539 
Q 1666 3584 2028 3584 
Q 2975 3584 3395 3211 
Q 3816 2838 3816 1997 
z
" transform="scale(0.015625)"/>
      <path id="DejaVuSans-Bold-64" d="M 2919 2988 
L 2919 4863 
L 4044 4863 
L 4044 0 
L 2919 0 
L 2919 506 
Q 2688 197 2409 53 
Q 2131 -91 1766 -91 
Q 1119 -91 703 423 
Q 288 938 288 1747 
Q 288 2556 703 3070 
Q 1119 3584 1766 3584 
Q 2128 3584 2408 3439 
Q 2688 3294 2919 2988 
z
M 2181 722 
Q 2541 722 2730 984 
Q 2919 1247 2919 1747 
Q 2919 2247 2730 2509 
Q 2541 2772 2181 2772 
Q 1825 2772 1636 2509 
Q 1447 2247 1447 1747 
Q 1447 1247 1636 984 
Q 1825 722 2181 722 
z
" transform="scale(0.015625)"/>
      <path id="DejaVuSans-Bold-73" d="M 3272 3391 
L 3272 2541 
Q 2913 2691 2578 2766 
Q 2244 2841 1947 2841 
Q 1628 2841 1473 2761 
Q 1319 2681 1319 2516 
Q 1319 2381 1436 2309 
Q 1553 2238 1856 2203 
L 2053 2175 
Q 2913 2066 3209 1816 
Q 3506 1566 3506 1031 
Q 3506 472 3093 190 
Q 2681 -91 1863 -91 
Q 1516 -91 1145 -36 
Q 775 19 384 128 
L 384 978 
Q 719 816 1070 734 
Q 1422 653 1784 653 
Q 2113 653 2278 743 
Q 2444 834 2444 1013 
Q 2444 1163 2330 1236 
Q 2216 1309 1875 1350 
L 1678 1375 
Q 931 1469 631 1722 
Q 331 1975 331 2491 
Q 331 3047 712 3315 
Q 1094 3584 1881 3584 
Q 2191 3584 2531 3537 
Q 2872 3491 3272 3391 
z
" transform="scale(0.015625)"/>
     </defs>
     <use xlink:href="#DejaVuSans-Bold-50"/>
     <use xlink:href="#DejaVuSans-Bold-79" transform="translate(75.166016 0)"/>
     <use xlink:href="#DejaVuSans-Bold-74" transform="translate(140.351562 0)"/>
     <use xlink:href="#DejaVuSans-Bold-68" transform="translate(188.154297 0)"/>
     <use xlink:href="#DejaVuSans-Bold-6f" transform="translate(259.345703 0)"/>
     <use xlink:href="#DejaVuSans-Bold-6e" transform="translate(328.046875 0)"/>
     <use xlink:href="#DejaVuSans-Bold-20" transform="translate(399.238281 0)"/>
     <use xlink:href="#DejaVuSans-Bold-2f" transform="translate(434.052734 0)"/>
     <use xlink:href="#DejaVuSans-Bold-20" transform="translate(470.576172 0)"/>
     <use xlink:href="#DejaVuSans-Bold-50" transform="translate(505.390625 0)"/>
     <use xlink:href="#DejaVuSans-Bold-61" transform="translate(576.056641 0)"/>
     <use xlink:href="#DejaVuSans-Bold-6e" transform="translate(643.537109 0)"/>
     <use xlink:href="#DejaVuSans-Bold-64" transform="translate(714.728516 0)"/>
     <use xlink:href="#DejaVuSans-Bold-61" transform="translate(786.310547 0)"/>
     <use xlink:href="#DejaVuSans-Bold-73" transform="translate(853.791016 0)"/>
    </g>
   </g>
   <g id="text_5">
    <!-- 70% -->
    <g style="fill: #f0883e" transform="translate(594 160.883437) scale(0.09 -0.09)">
     <defs>
      <path id="DejaVuSans-Bold-37" d="M 428 4666 
L 3944 4666 
L 3944 3988 
L 2125 0 
L 953 0 
L 2675 3781 
L 428 3781 
L 428 4666 
z
" transform="scale(0.015625)"/>
      <path id="DejaVuSans-Bold-30" d="M 2944 2338 
Q 2944 3213 2780 3570 
Q 2616 3928 2228 3928 
Q 1841 3928 1675 3570 
Q 1509 3213 1509 2338 
Q 1509 1453 1675 1090 
Q 1841 728 2228 728 
Q 2613 728 2778 1090 
Q 2944 1453 2944 2338 
z
M 4147 2328 
Q 4147 1169 3647 539 
Q 3147 -91 2228 -91 
Q 1306 -91 806 539 
Q 306 1169 306 2328 
Q 306 3491 806 4120 
Q 1306 4750 2228 4750 
Q 3147 4750 3647 4120 
Q 4147 3491 4147 2328 
z
" transform="scale(0.015625)"/>
     </defs>
     <use xlink:href="#DejaVuSans-Bold-37"/>
     <use xlink:href="#DejaVuSans-Bold-30" transform="translate(69.580078 0)"/>
     <use xlink:href="#DejaVuSans-Bold-25" transform="translate(139.160156 0)"/>
    </g>
   </g>
   <g id="text_6">
    <!-- Data Visualization -->
    <g style="fill: #f0f6fc" transform="translate(39.6 215.159375) scale(0.1 -0.1)">
     <defs>
      <path id="DejaVuSans-Bold-44" d="M 1791 3756 
L 1791 909 
L 2222 909 
Q 2959 909 3348 1275 
Q 3738 1641 3738 2338 
Q 3738 3031 3350 3393 
Q 2963 3756 2222 3756 
L 1791 3756 
z
M 588 4666 
L 1856 4666 
Q 2919 4666 3439 4514 
Q 3959 4363 4331 4000 
Q 4659 3684 4818 3271 
Q 4978 2859 4978 2338 
Q 4978 1809 4818 1395 
Q 4659 981 4331 666 
Q 3956 303 3431 151 
Q 2906 0 1856 0 
L 588 0 
L 588 4666 
z
" transform="scale(0.015625)"/>
      <path id="DejaVuSans-Bold-56" d="M 31 4666 
L 1241 4666 
L 2478 1222 
L 3713 4666 
L 4922 4666 
L 3194 0 
L 1759 0 
L 31 4666 
z
" transform="scale(0.015625)"/>
      <path id="DejaVuSans-Bold-69" d="M 538 3500 
L 1656 3500 
L 1656 0 
L 538 0 
L 538 3500 
z
M 538 4863 
L 1656 4863 
L 1656 3950 
L 538 3950 
L 538 4863 
z
" transform="scale(0.015625)"/>
      <path id="DejaVuSans-Bold-75" d="M 500 1363 
L 500 3500 
L 1625 3500 
L 1625 3150 
Q 1625 2866 1622 2436 
Q 1619 2006 1619 1863 
Q 1619 1441 1641 1255 
Q 1663 1069 1716 984 
Q 1784 875 1895 815 
Q 2006 756 2150 756 
Q 2500 756 2700 1025 
Q 2900 1294 2900 1772 
L 2900 3500 
L 4019 3500 
L 4019 0 
L 2900 0 
L 2900 506 
Q 2647 200 2364 54 
Q 2081 -91 1741 -91 
Q 1134 -91 817 281 
Q 500 653 500 1363 
z
" transform="scale(0.015625)"/>
      <path id="DejaVuSans-Bold-6c" d="M 538 4863 
L 1656 4863 
L 1656 0 
L 538 0 
L 538 4863 
z
" transform="scale(0.015625)"/>
      <path id="DejaVuSans-Bold-7a" d="M 366 3500 
L 3419 3500 
L 3419 2719 
L 1575 800 
L 3419 800 
L 3419 0 
L 288 0 
L 288 781 
L 2131 2700 
L 366 2700 
L 366 3500 
z
" transform="scale(0.015625)"/>
     </defs>
     <use xlink:href="#DejaVuSans-Bold-44"/>
     <use xlink:href="#DejaVuSans-Bold-61" transform="translate(83.007812 0)"/>
     <use xlink:href="#DejaVuSans-Bold-74" transform="translate(150.488281 0)"/>
     <use xlink:href="#DejaVuSans-Bold-61" transform="translate(198.291016 0)"/>
     <use xlink:href="#DejaVuSans-Bold-20" transform="translate(265.771484 0)"/>
     <use xlink:href="#DejaVuSans-Bold-56" transform="translate(300.585938 0)"/>
     <use xlink:href="#DejaVuSans-Bold-69" transform="translate(376.228516 0)"/>
     <use xlink:href="#DejaVuSans-Bold-73" transform="translate(410.505859 0)"/>
     <use xlink:href="#DejaVuSans-Bold-75" transform="translate(470.027344 0)"/>
     <use xlink:href="#DejaVuSans-Bold-61" transform="translate(541.21875 0)"/>
     <use xlink:href="#DejaVuSans-Bold-6c" transform="translate(608.699219 0)"/>
     <use xlink:href="#DejaVuSans-Bold-69" transform="translate(642.976562 0)"/>
     <use xlink:href="#DejaVuSans-Bold-7a" transform="translate(677.253906 0)"/>
     <use xlink:href="#DejaVuSans-Bold-61" transform="translate(735.457031 0)"/>
     <use xlink:href="#DejaVuSans-Bold-74" transform="translate(802.9375 0)"/>
     <use xlink:href="#DejaVuSans-Bold-69" transform="translate(850.740234 0)"/>
     <use xlink:href="#DejaVuSans-Bold-6f" transform="translate(885.017578 0)"/>
     <use xlink:href="#DejaVuSans-Bold-6e" transform="translate(953.71875 0)"/>
    </g>
   </g>
   <g id="text_7">
    <!-- 75% -->
    <g style="fill: #238636" transform="translate(594 214.883438) scale(0.09 -0.09)">
     <use xlink:href="#DejaVuSans-Bold-37"/>
     <use xlink:href="#DejaVuSans-Bold-35" transform="translate(69.580078 0)"/>
     <use xlink:href="#DejaVuSans-Bold-25" transform="translate(139.160156 0)"/>
    </g>
   </g>
   <g id="text_8">
    <!-- Product Thinking -->
    <g style="fill: #f0f6fc" transform="translate(39.6 269.120313) scale(0.1 -0.1)">
     <defs>
      <path id="DejaVuSans-Bold-72" d="M 3138 2547 
Q 2991 2616 2845 2648 
Q 2700 2681 2553 2681 
Q 2122 2681 1889 2404 
Q 1656 2128 1656 1613 
L 1656 0 
L 538 0 
L 538 3500 
L 1656 3500 
L 1656 2925 
Q 1872 3269 2151 3426 
Q 2431 3584 2822 3584 
Q 2878 3584 2943 3579 
Q 3009 3575 3134 3559 
L 3138 2547 
z
" transform="scale(0.015625)"/>
      <path id="DejaVuSans-Bold-63" d="M 3366 3391 
L 3366 2478 
Q 3138 2634 2908 2709 
Q 2678 2784 2431 2784 
Q 1963 2784 1702 2511 
Q 1441 2238 1441 1747 
Q 1441 1256 1702 982 
Q 1963 709 2431 709 
Q 2694 709 2930 787 
Q 3166 866 3366 1019 
L 3366 103 
Q 3103 6 2833 -42 
Q 2563 -91 2291 -91 
Q 1344 -91 809 395 
Q 275 881 275 1747 
Q 275 2613 809 3098 
Q 1344 3584 2291 3584 
Q 2566 3584 2833 3536 
Q 3100 3488 3366 3391 
z
" transform="scale(0.015625)"/>
      <path id="DejaVuSans-Bold-6b" d="M 538 4863 
L 1656 4863 
L 1656 2216 
L 2944 3500 
L 4244 3500 
L 2534 1894 
L 4378 0 
L 3022 0 
L 1656 1459 
L 1656 0 
L 538 0 
L 538 4863 
z
" transform="scale(0.015625)"/>
      <path id="DejaVuSans-Bold-67" d="M 2919 594 
Q 2688 288 2409 144 
Q 2131 0 1766 0 
Q 1125 0 706 504 
Q 288 1009 288 1791 
Q 288 2575 706 3076 
Q 1125 3578 1766 3578 
Q 2131 3578 2409 3434 
Q 2688 3291 2919 2981 
L 2919 3500 
L 4044 3500 
L 4044 353 
Q 4044 -491 3511 -936 
Q 2978 -1381 1966 -1381 
Q 1638 -1381 1331 -1331 
Q 1025 -1281 716 -1178 
L 716 -306 
Q 1009 -475 1290 -558 
Q 1572 -641 1856 -641 
Q 2406 -641 2662 -400 
Q 2919 -159 2919 353 
L 2919 594 
z
M 2181 2772 
Q 1834 2772 1640 2515 
Q 1447 2259 1447 1791 
Q 1447 1309 1634 1061 
Q 1822 813 2181 813 
Q 2531 813 2725 1069 
Q 2919 1325 2919 1791 
Q 2919 2259 2725 2515 
Q 2531 2772 2181 2772 
z
" transform="scale(0.015625)"/>
     </defs>
     <use xlink:href="#DejaVuSans-Bold-50"/>
     <use xlink:href="#DejaVuSans-Bold-72" transform="translate(73.291016 0)"/>
     <use xlink:href="#DejaVuSans-Bold-6f" transform="translate(122.607422 0)"/>
     <use xlink:href="#DejaVuSans-Bold-64" transform="translate(191.308594 0)"/>
     <use xlink:href="#DejaVuSans-Bold-75" transform="translate(262.890625 0)"/>
     <use xlink:href="#DejaVuSans-Bold-63" transform="translate(334.082031 0)"/>
     <use xlink:href="#DejaVuSans-Bold-74" transform="translate(393.359375 0)"/>
     <use xlink:href="#DejaVuSans-Bold-20" transform="translate(441.162109 0)"/>
     <use xlink:href="#DejaVuSans-Bold-54" transform="translate(475.976562 0)"/>
     <use xlink:href="#DejaVuSans-Bold-68" transform="translate(544.189453 0)"/>
     <use xlink:href="#DejaVuSans-Bold-69" transform="translate(615.380859 0)"/>
     <use xlink:href="#DejaVuSans-Bold-6e" transform="translate(649.658203 0)"/>
     <use xlink:href="#DejaVuSans-Bold-6b" transform="translate(720.849609 0)"/>
     <use xlink:href="#DejaVuSans-Bold-69" transform="translate(787.353516 0)"/>
     <use xlink:href="#DejaVuSans-Bold-6e" transform="translate(821.630859 0)"/>
     <use xlink:href="#DejaVuSans-Bold-67" transform="translate(892.822266 0)"/>
    </g>
   </g>
   <g id="text_9">
    <!-- 80% -->
    <g style="fill: #a371f7" transform="translate(594 268.883438) scale(0.09 -0.09)">
     <use xlink:href="#DejaVuSans-Bold-38"/>
     <use xlink:href="#DejaVuSans-Bold-30" transform="translate(69.580078 0)"/>
     <use xlink:href="#DejaVuSans-Bold-25" transform="translate(139.160156 0)"/>
    </g>
   </g>
   <g id="text_10">
    <!-- UX Research -->
    <g style="fill: #f0f6fc" transform="translate(39.6 323.159375) scale(0.1 -0.1)">
     <defs>
      <path id="DejaVuSans-Bold-55" d="M 588 4666 
L 1791 4666 
L 1791 1869 
Q 1791 1291 1980 1042 
Q 2169 794 2597 794 
Q 3028 794 3217 1042 
Q 3406 1291 3406 1869 
L 3406 4666 
L 4609 4666 
L 4609 1869 
Q 4609 878 4112 393 
Q 3616 -91 2597 -91 
Q 1581 -91 1084 393 
Q 588 878 588 1869 
L 588 4666 
z
" transform="scale(0.015625)"/>
      <path id="DejaVuSans-Bold-65" d="M 4031 1759 
L 4031 1441 
L 1416 1441 
Q 1456 1047 1700 850 
Q 1944 653 2381 653 
Q 2734 653 3104 758 
Q 3475 863 3866 1075 
L 3866 213 
Q 3469 63 3072 -14 
Q 2675 -91 2278 -91 
Q 1328 -91 801 392 
Q 275 875 275 1747 
Q 275 2603 792 3093 
Q 1309 3584 2216 3584 
Q 3041 3584 3536 3087 
Q 4031 2591 4031 1759 
z
M 2881 2131 
Q 2881 2450 2695 2645 
Q 2509 2841 2209 2841 
Q 1884 2841 1681 2658 
Q 1478 2475 1428 2131 
L 2881 2131 
z
" transform="scale(0.015625)"/>
     </defs>
     <use xlink:href="#DejaVuSans-Bold-55"/>
     <use xlink:href="#DejaVuSans-Bold-58" transform="translate(81.201172 0)"/>
     <use xlink:href="#DejaVuSans-Bold-20" transform="translate(158.300781 0)"/>
     <use xlink:href="#DejaVuSans-Bold-52" transform="translate(193.115234 0)"/>
     <use xlink:href="#DejaVuSans-Bold-65" transform="translate(270.117188 0)"/>
     <use xlink:href="#DejaVuSans-Bold-73" transform="translate(337.939453 0)"/>
     <use xlink:href="#DejaVuSans-Bold-65" transform="translate(397.460938 0)"/>
     <use xlink:href="#DejaVuSans-Bold-61" transform="translate(465.283203 0)"/>
     <use xlink:href="#DejaVuSans-Bold-72" transform="translate(532.763672 0)"/>
     <use xlink:href="#DejaVuSans-Bold-63" transform="translate(582.080078 0)"/>
     <use xlink:href="#DejaVuSans-Bold-68" transform="translate(641.357422 0)"/>
    </g>
   </g>
   <g id="text_11">
    <!-- 72% -->
    <g style="fill: #fd3a5c" transform="translate(594 322.883438) scale(0.09 -0.09)">
     <defs>
      <path id="DejaVuSans-Bold-32" d="M 1844 884 
L 3897 884 
L 3897 0 
L 506 0 
L 506 884 
L 2209 2388 
Q 2438 2594 2547 2791 
Q 2656 2988 2656 3200 
Q 2656 3528 2436 3728 
Q 2216 3928 1850 3928 
Q 1569 3928 1234 3808 
Q 900 3688 519 3450 
L 519 4475 
Q 925 4609 1322 4679 
Q 1719 4750 2100 4750 
Q 2938 4750 3402 4381 
Q 3866 4013 3866 3353 
Q 3866 2972 3669 2642 
Q 3472 2313 2841 1759 
L 1844 884 
z
" transform="scale(0.015625)"/>
     </defs>
     <use xlink:href="#DejaVuSans-Bold-37"/>
     <use xlink:href="#DejaVuSans-Bold-32" transform="translate(69.580078 0)"/>
     <use xlink:href="#DejaVuSans-Bold-25" transform="translate(139.160156 0)"/>
    </g>
   </g>
   <g id="text_12">
    <!-- Statistical Analysis -->
    <g style="fill: #f0f6fc" transform="translate(39.6 377.120313) scale(0.1 -0.1)">
     <use xlink:href="#DejaVuSans-Bold-53"/>
     <use xlink:href="#DejaVuSans-Bold-74" transform="translate(72.021484 0)"/>
     <use xlink:href="#DejaVuSans-Bold-61" transform="translate(119.824219 0)"/>
     <use xlink:href="#DejaVuSans-Bold-74" transform="translate(187.304688 0)"/>
     <use xlink:href="#DejaVuSans-Bold-69" transform="translate(235.107422 0)"/>
     <use xlink:href="#DejaVuSans-Bold-73" transform="translate(269.384766 0)"/>
     <use xlink:href="#DejaVuSans-Bold-74" transform="translate(328.90625 0)"/>
     <use xlink:href="#DejaVuSans-Bold-69" transform="translate(376.708984 0)"/>
     <use xlink:href="#DejaVuSans-Bold-63" transform="translate(410.986328 0)"/>
     <use xlink:href="#DejaVuSans-Bold-61" transform="translate(470.263672 0)"/>
     <use xlink:href="#DejaVuSans-Bold-6c" transform="translate(537.744141 0)"/>
     <use xlink:href="#DejaVuSans-Bold-20" transform="translate(572.021484 0)"/>
     <use xlink:href="#DejaVuSans-Bold-41" transform="translate(606.835938 0)"/>
     <use xlink:href="#DejaVuSans-Bold-6e" transform="translate(684.228516 0)"/>
     <use xlink:href="#DejaVuSans-Bold-61" transform="translate(755.419922 0)"/>
     <use xlink:href="#DejaVuSans-Bold-6c" transform="translate(822.900391 0)"/>
     <use xlink:href="#DejaVuSans-Bold-79" transform="translate(857.177734 0)"/>
     <use xlink:href="#DejaVuSans-Bold-73" transform="translate(922.363281 0)"/>
     <use xlink:href="#DejaVuSans-Bold-69" transform="translate(981.884766 0)"/>
     <use xlink:href="#DejaVuSans-Bold-73" transform="translate(1016.162109 0)"/>
    </g>
   </g>
   <g id="text_13">
    <!-- 55% -->
    <g style="fill: #ffd700" transform="translate(594 376.883438) scale(0.09 -0.09)">
     <use xlink:href="#DejaVuSans-Bold-35"/>
     <use xlink:href="#DejaVuSans-Bold-35" transform="translate(69.580078 0)"/>
     <use xlink:href="#DejaVuSans-Bold-25" transform="translate(139.160156 0)"/>
    </g>
   </g>
  </g>
 </g>
 <defs>
  <clipPath id="p38f5ab05cf">
   <rect x="3.6" y="3.6" width="720" height="432"/>
  </clipPath>
 </defs>
</svg>
